<?xml version="1.0" standalone="no"?>
<!DOCTYPE svg PUBLIC "-//W3C//DTD SVG 20010904//EN"
 "http://www.w3.org/TR/2001/REC-SVG-20010904/DTD/svg10.dtd">
<svg version="1.0" xmlns="http://www.w3.org/2000/svg"
 width="428.000000pt" height="621.000000pt" viewBox="0 0 428.000000 621.000000"
 preserveAspectRatio="xMidYMid meet">

<g transform="translate(0.000000,621.000000) scale(0.100000,-0.100000)"
fill="#000000" stroke="none">
<path d="M758 5918 c-93 -48 -166 -168 -218 -354 -31 -112 -52 -363 -54 -624
-1 -252 8 -316 56 -380 l20 -28 -25 -83 c-26 -83 -74 -246 -102 -344 -63 -221
-76 -437 -35 -599 25 -101 22 -109 -47 -122 -18 -3 -36 -10 -39 -15 -3 -5 -24
-9 -48 -9 -74 0 -109 -70 -57 -112 31 -24 87 -18 188 19 38 13 76 27 85 30 11
3 21 -5 32 -26 9 -17 25 -35 36 -41 11 -6 20 -16 20 -23 0 -15 -108 -89 -164
-112 -52 -22 -69 -41 -69 -75 0 -79 68 -79 198 1 48 30 102 63 121 73 l34 20
30 -35 c20 -23 29 -45 30 -68 0 -31 -15 -49 -160 -193 -135 -133 -160 -162
-160 -187 0 -36 23 -61 55 -61 33 0 114 68 204 173 42 48 100 106 130 128 62
46 74 46 149 -1 67 -41 207 -79 295 -80 40 0 48 -3 45 -17 -2 -11 -27 -24 -73
-38 -81 -25 -271 -118 -295 -145 -3 -3 -24 -18 -48 -34 -106 -72 -217 -219
-265 -351 -26 -71 -28 -231 -3 -305 43 -128 126 -224 217 -251 21 -7 43 -17
48 -23 5 -6 11 -129 14 -273 4 -219 3 -263 -9 -263 -26 0 -149 135 -189 209
-29 55 -49 79 -81 97 -84 49 -195 21 -238 -61 -18 -34 -21 -58 -21 -155 0
-102 3 -122 26 -178 97 -229 302 -367 631 -421 37 -6 78 -9 91 -6 20 5 30 -3
65 -48 70 -90 178 -186 245 -218 126 -59 249 -23 309 92 18 36 22 59 22 131
l-1 88 26 0 c14 0 69 -8 121 -17 73 -13 155 -17 355 -17 232 0 271 2 359 22
54 12 119 22 145 22 50 0 116 -26 167 -65 79 -61 261 -93 338 -61 69 29 110
136 87 229 -18 71 -40 98 -129 165 -104 77 -122 113 -122 242 0 110 19 369 29
388 3 8 38 24 76 36 67 21 114 45 143 73 7 7 16 13 20 13 12 0 117 104 161
160 110 139 157 317 115 442 -61 187 -281 375 -526 451 -61 19 -75 41 -35 52
69 21 260 114 329 163 26 17 50 32 55 32 5 0 33 -34 63 -77 157 -219 169 -233
197 -233 41 1 63 22 63 60 0 31 -43 100 -167 268 -23 31 -43 61 -43 65 0 7 56
84 71 97 3 3 8 13 12 23 11 29 30 18 92 -55 33 -39 69 -81 80 -92 11 -12 33
-38 48 -58 23 -31 35 -38 61 -38 69 0 86 63 34 127 -76 94 -178 210 -212 242
-27 26 -36 43 -36 67 0 18 5 36 10 39 6 4 67 -21 136 -54 123 -61 169 -72 192
-49 16 16 15 70 0 90 -7 9 -82 49 -165 89 l-153 73 -2 111 c-2 126 -4 168 -12
245 -4 30 -11 105 -17 165 -6 61 -17 153 -26 205 -8 52 -16 138 -17 190 -1 81
2 103 23 149 13 30 28 70 33 90 5 20 14 54 19 76 13 51 12 331 -1 408 -5 31
-14 81 -19 110 -36 209 -121 469 -178 544 -62 81 -174 109 -261 64 -99 -51
-224 -213 -334 -436 -32 -66 -63 -124 -68 -129 -5 -5 -23 -3 -42 6 -153 71
-527 128 -833 128 -170 0 -238 -11 -403 -65 -97 -32 -196 -34 -251 -5 -50 25
-81 63 -160 197 -123 206 -187 280 -282 329 -57 28 -109 29 -161 2z m151 -145
c43 -36 117 -143 181 -258 70 -127 135 -201 215 -243 72 -37 202 -36 330 2
192 58 203 60 370 60 305 0 672 -55 798 -119 77 -40 105 -45 141 -28 28 13 45
39 111 167 126 247 219 377 297 417 43 22 61 17 99 -29 30 -35 49 -79 93 -222
87 -284 118 -588 77 -751 -12 -46 -33 -107 -47 -136 l-27 -52 12 -163 c7 -90
19 -212 26 -273 22 -167 48 -582 41 -656 -7 -81 -24 -161 -43 -208 -38 -91
-146 -202 -258 -266 -27 -16 -52 -32 -55 -35 -3 -4 -45 -23 -95 -44 -49 -21
-99 -41 -110 -46 -28 -13 -99 -36 -175 -56 -49 -13 -102 -17 -212 -16 -140 0
-149 -1 -163 -21 -20 -29 -19 -60 3 -80 16 -14 47 -23 175 -47 28 -5 77 -15
107 -20 95 -18 235 -52 245 -60 6 -4 26 -11 45 -15 135 -28 307 -170 405 -333
36 -61 37 -67 33 -133 -4 -52 -14 -86 -38 -134 -18 -36 -36 -65 -40 -65 -3 0
-22 -21 -41 -46 -67 -91 -216 -183 -309 -191 -58 -6 -60 -5 -95 30 -41 41 -46
81 -13 122 22 29 89 64 121 65 54 0 65 76 16 112 -36 27 -35 34 12 192 31 105
37 180 16 207 -8 11 -42 19 -107 27 -94 11 -245 49 -307 77 -17 8 -35 15 -39
15 -8 0 -168 56 -199 70 -41 19 -192 52 -248 54 -66 3 -74 8 -52 29 33 33 37
175 6 185 -6 2 -11 11 -11 21 0 9 -5 22 -11 28 -11 11 9 93 23 93 8 0 34 54
41 89 3 13 -3 51 -14 83 -23 65 -20 94 13 138 14 20 19 39 16 63 -3 30 -1 34
17 32 11 -1 43 -13 70 -25 41 -19 68 -23 150 -23 88 -1 106 2 150 25 93 48
137 118 137 219 1 107 -40 159 -99 128 -37 -20 -46 -52 -27 -99 15 -37 15 -41
-5 -74 -27 -42 -101 -76 -169 -76 -44 0 -174 39 -229 69 -41 21 -110 41 -165
47 -64 8 -117 -6 -236 -61 -90 -42 -155 -65 -187 -65 -61 0 -117 41 -146 108
l-19 43 26 56 c30 63 24 98 -21 109 -47 12 -73 -3 -100 -56 -58 -114 -16 -256
97 -333 94 -63 202 -67 316 -12 28 14 55 25 58 25 3 0 21 7 40 16 19 9 41 14
49 10 23 -9 18 -50 -10 -76 -24 -23 -35 -47 -15 -35 16 10 11 -1 -7 -16 -14
-12 -16 -12 -9 1 4 8 -2 4 -13 -9 -28 -31 -26 -52 9 -109 31 -50 34 -93 10
-115 -12 -10 -12 -9 -1 6 19 24 8 21 -15 -5 -10 -12 -13 -18 -5 -13 9 5 12 3
9 -6 -3 -8 -11 -14 -19 -14 -8 0 -15 -10 -17 -22 -2 -13 -8 -23 -13 -23 -16 0
-11 -90 6 -96 8 -4 12 -10 9 -15 -3 -5 -1 -9 5 -9 14 0 41 -54 41 -82 -1 -26
-24 -73 -37 -73 -4 0 -7 -4 -5 -8 1 -5 -2 -6 -7 -2 -6 3 -17 -10 -25 -29 -10
-23 -23 -37 -38 -40 -74 -13 -226 -49 -243 -56 -29 -13 -179 -47 -260 -59
-130 -20 -180 -29 -232 -44 -53 -15 -65 -10 -45 19 8 13 181 97 232 112 34 11
147 34 225 47 76 12 103 25 124 61 37 62 30 80 -41 113 -78 35 -164 60 -343
101 -77 17 -147 35 -155 39 -9 5 -31 12 -50 16 -97 21 -214 97 -291 187 -163
192 -220 293 -240 419 -16 103 -5 262 26 384 14 55 32 125 40 155 8 30 30 105
50 165 20 61 45 145 56 188 19 72 19 80 4 100 -8 12 -27 37 -40 55 -38 53 -48
127 -41 300 4 85 9 173 11 195 1 23 6 87 10 142 8 111 42 280 74 366 24 62
114 159 149 159 10 0 38 -16 61 -37z m1169 -2335 c2 -16 -9 -46 -27 -75 -46
-75 -48 -99 -11 -156 31 -45 32 -50 21 -93 -11 -45 -32 -85 -58 -112 -20 -20
-15 -105 8 -172 l21 -60 -21 -67 c-25 -78 -27 -140 -6 -190 21 -49 19 -69 -11
-108 -16 -21 -24 -43 -22 -61 3 -31 -15 -40 -58 -30 -33 9 -32 45 2 77 41 38
55 73 48 119 -4 23 -12 47 -18 53 -15 15 -25 42 -32 84 -4 27 1 44 25 82 40
61 39 85 -4 151 -41 66 -43 86 -10 131 13 19 32 44 41 56 22 31 20 82 -5 129
-12 21 -21 44 -21 50 0 6 18 39 41 74 35 55 40 69 35 101 -5 33 -3 38 16 42
35 6 43 2 46 -25z m92 -12 c0 -18 -7 -53 -15 -76 -20 -57 -18 -135 5 -190 23
-56 26 -26 4 52 -15 53 -15 61 0 107 9 27 16 65 16 84 0 41 7 49 31 36 25 -13
25 -68 -1 -119 -11 -22 -20 -50 -20 -64 0 -14 9 -48 20 -76 27 -69 25 -87 -15
-150 -43 -68 -45 -116 -10 -182 14 -26 25 -57 25 -69 0 -12 -16 -57 -36 -101
-42 -94 -41 -125 7 -217 16 -32 28 -64 25 -72 -2 -8 -7 -26 -10 -41 -5 -23
-12 -28 -37 -28 -29 0 -31 2 -26 28 3 15 9 36 13 46 5 12 4 17 -3 13 -5 -3
-15 -24 -23 -46 -11 -35 -17 -41 -42 -41 -15 0 -28 2 -28 4 0 2 10 29 21 59
l21 56 -25 74 c-29 83 -28 97 17 184 32 64 32 75 1 138 -34 70 -34 143 2 204
36 62 36 116 1 167 -36 52 -35 72 7 151 21 40 33 74 29 85 -4 14 0 18 20 18
23 0 26 -4 26 -34z m-126 -417 c-16 -27 -14 -120 5 -159 14 -28 15 -37 5 -33
-8 3 -14 13 -14 23 0 11 -4 22 -10 25 -22 13 -7 155 16 155 3 0 2 -5 -2 -11z
m1 -334 c-8 -21 -18 -36 -21 -33 -3 4 -1 14 5 25 5 10 12 27 16 37 3 10 8 16
11 14 3 -3 -2 -23 -11 -43z m132 -67 c-3 -8 -6 -5 -6 6 -1 11 2 17 5 13 3 -3
4 -12 1 -19z m0 -70 c-3 -8 -6 -5 -6 6 -1 11 2 17 5 13 3 -3 4 -12 1 -19z
m-139 -23 c-3 -3 -9 2 -12 12 -6 14 -5 15 5 6 7 -7 10 -15 7 -18z m-144 0 c17
-18 12 -40 -16 -72 -11 -11 -22 -41 -25 -65 -8 -59 -19 -71 -63 -64 -19 3 -78
10 -130 16 -167 18 -302 44 -308 58 -7 19 16 32 57 32 32 0 284 63 326 81 18
8 99 25 132 28 6 0 18 -6 27 -14z m471 -17 c221 -64 300 -94 300 -114 0 -16
-10 -20 -65 -25 -36 -4 -130 -14 -209 -23 -79 -9 -146 -14 -149 -11 -3 3 0 23
7 45 12 40 8 75 -15 119 -25 48 -6 49 131 9z m-306 -43 c0 -5 -4 -3 -9 5 -5 8
-9 22 -9 30 0 16 17 -16 18 -35z m-1062 -22 c-6 -30 4 -75 33 -138 22 -48 46
-126 55 -178 9 -49 -13 -77 -62 -77 -63 0 -98 -74 -53 -115 18 -16 26 -16 100
-5 130 20 290 -4 290 -45 0 -28 -54 -78 -120 -108 -59 -28 -74 -31 -170 -31
-111 -1 -175 15 -233 56 -34 24 -75 88 -84 128 -3 17 -10 33 -14 36 -12 7 -11
181 0 189 5 3 12 18 16 35 10 45 76 138 150 213 74 73 101 85 92 40z m929 1
c-4 -9 -9 -15 -11 -12 -3 3 -3 13 1 22 4 9 9 15 11 12 3 -3 3 -13 -1 -22z
m121 -36 c-3 -7 -5 -2 -5 12 0 14 2 19 5 13 2 -7 2 -19 0 -25z m-852 -108 c12
-10 232 -55 338 -69 42 -6 110 -15 150 -21 65 -9 384 -26 432 -22 96 6 336 36
550 68 141 21 358 44 363 39 8 -7 -19 -94 -32 -103 -26 -20 -238 -67 -371 -83
-140 -16 -729 -6 -875 15 -19 3 -124 12 -233 21 -139 11 -219 22 -265 37 -81
26 -89 32 -108 76 -21 52 -19 64 14 56 15 -4 32 -10 37 -14z m1760 -292 c-4
-18 -22 -48 -41 -67 -40 -40 -61 -83 -70 -142 -8 -51 -38 -88 -104 -126 -25
-14 -47 -29 -50 -32 -8 -9 -79 -41 -125 -56 -127 -42 -171 -48 -375 -53 -250
-5 -396 14 -559 73 -94 34 -221 102 -221 118 0 5 13 21 28 37 56 55 67 177 22
225 -12 13 -20 27 -17 32 5 8 159 -2 412 -26 138 -14 731 -14 822 -1 119 17
223 37 230 44 3 3 17 6 30 6 22 0 24 -3 18 -32z m-1635 -362 c0 -7 11 -24 24
-37 24 -24 152 -93 193 -104 20 -6 22 -12 20 -70 -2 -78 14 -99 92 -120 53
-14 298 -21 626 -19 166 1 316 21 373 49 33 17 48 55 32 85 -18 34 -12 57 20
68 35 13 173 100 178 113 5 12 30 11 45 -2 7 -5 27 -19 46 -30 l34 -20 -7 -87
c-3 -48 -11 -136 -16 -197 -24 -258 18 -379 164 -471 79 -50 110 -129 66 -169
-29 -26 -102 -15 -176 28 -130 75 -158 88 -222 99 -59 9 -81 8 -177 -11 -233
-47 -541 -49 -775 -5 -47 9 -103 17 -124 18 -38 1 -42 4 -76 63 -50 86 -77
113 -114 113 -69 -1 -86 -56 -37 -119 16 -20 48 -74 72 -121 36 -70 44 -97 47
-152 4 -64 3 -69 -27 -99 -29 -28 -37 -31 -77 -26 -58 6 -117 52 -212 165
-132 157 -216 300 -247 418 -8 33 -18 102 -21 154 -10 182 -21 445 -18 451 2
3 44 9 93 13 50 4 105 13 123 21 42 18 78 19 78 1z m391 -209 c-13 -13 -26 -3
-16 12 3 6 11 8 17 5 6 -4 6 -10 -1 -17z m-1134 -121 c16 -14 35 -43 41 -64
18 -60 89 -159 138 -192 24 -17 76 -48 116 -69 69 -37 74 -42 95 -96 13 -32
34 -80 48 -106 33 -65 33 -81 -2 -73 -132 29 -185 53 -343 156 -65 43 -163
150 -196 216 -44 87 -44 178 1 226 30 33 65 33 102 2z"/>
<path d="M1678 4437 c-191 -155 -389 -210 -640 -177 -101 14 -101 14 -119 -9
-11 -13 -19 -33 -19 -46 0 -41 32 -56 152 -73 183 -25 372 6 530 87 101 51
248 167 248 196 0 22 -48 65 -74 65 -15 0 -47 -18 -78 -43z"/>
<path d="M2336 4448 c-25 -35 -19 -63 17 -95 50 -44 210 -118 312 -144 172
-45 591 -27 635 26 18 22 16 83 -2 102 -14 14 -22 14 -60 4 -276 -78 -581 -39
-785 100 -51 35 -96 38 -117 7z"/>
<path d="M2171 3081 c-1 -8 -12 -28 -24 -45 -26 -34 -50 -76 -44 -76 12 0 78
110 74 122 -4 10 -6 10 -6 -1z"/>
<path d="M2122 2834 c13 -25 24 -40 26 -35 3 10 -35 81 -44 81 -2 0 6 -21 18
-46z"/>
<path d="M2122 2665 c-30 -62 -27 -71 4 -12 14 27 24 51 22 53 -3 2 -14 -17
-26 -41z"/>
<path d="M2091 2584 c0 -11 3 -14 6 -6 3 7 2 16 -1 19 -3 4 -6 -2 -5 -13z"/>
<path d="M2125 2463 c16 -38 25 -52 25 -39 0 12 -29 76 -35 76 -3 0 2 -17 10
-37z"/>
<path d="M2080 1780 c0 -47 4 -80 10 -80 6 0 10 33 10 80 0 47 -4 80 -10 80
-6 0 -10 -33 -10 -80z"/>
<path d="M2140 1780 c0 -79 5 -91 28 -68 8 8 15 8 27 -2 23 -19 29 -5 9 24
-16 25 -16 28 1 46 20 22 13 42 -7 22 -23 -23 -38 -13 -38 23 0 19 -4 35 -10
35 -6 0 -10 -33 -10 -80z"/>
<path d="M1860 1835 c0 -7 -8 -19 -17 -25 -17 -10 -17 -10 0 -20 12 -8 17 -24
17 -51 0 -24 4 -38 10 -34 6 3 10 21 10 39 0 17 5 37 10 42 7 7 6 19 -2 37
-14 29 -28 36 -28 12z"/>
<path d="M1940 1785 c-11 -21 -11 -29 0 -49 16 -31 29 -36 66 -28 26 6 29 11
31 53 l2 46 -43 1 c-36 2 -45 -2 -56 -23z m65 -25 c0 -29 -32 -41 -41 -16 -9
24 4 48 23 44 12 -2 18 -12 18 -28z"/>
<path d="M2272 1794 c-41 -28 -16 -94 35 -94 42 0 64 59 34 89 -25 25 -39 26
-69 5z m56 -36 c-2 -15 -10 -23 -23 -23 -13 0 -21 8 -23 23 -3 18 1 22 23 22
22 0 26 -4 23 -22z"/>
</g>
</svg>
